<svg t="1677322024701" class="icon" viewBox="0 0 1024 1024" version="1.1" xmlns="http://www.w3.org/2000/svg" p-id="36828" width="32" height="32"><path d="M766.076924 403.266496a42.293287 42.293287 0 0 0-61.1138 1.480265 43.985019 43.985019 0 0 0-2.537597 62.171132l2.537597 2.537597a263.698647 263.698647 0 0 1 59.633535 90.296169 271.945838 271.945838 0 0 1 0 205.122444 262.852781 262.852781 0 0 1-59.633535 90.084702c-4.440795 4.440795-8.458657 8.247191-12.265053 11.419188s-8.458657 6.978392-13.745319 10.784788a260.738117 260.738117 0 0 1-86.912706 44.407952 278.289831 278.289831 0 0 1-95.582829 11.207721 273.214637 273.214637 0 0 1-93.679632-21.146644 266.870644 266.870644 0 0 1-82.47191-56.461538 260.949583 260.949583 0 0 1-59.210603-89.66177 289.920485 289.920485 0 0 1-19.877845-102.772688 270.465573 270.465573 0 0 1 19.03198-102.561222A257.989053 257.989053 0 0 1 318.402477 469.666957a269.408241 269.408241 0 0 1 89.238836-59.845002 283.153559 283.153559 0 0 1 88.604437-19.454912v239.16854a42.293287 42.293287 0 0 0 51.597811 34.891962 43.985019 43.985019 0 0 0 37.852492-49.694612V324.600981a25.375972 25.375972 0 0 0-25.375972-25.375972h-48.425814a368.163067 368.163067 0 0 0-137.876117 27.067704A356.743879 356.743879 0 0 0 254.962546 405.804093a350.18842 350.18842 0 0 0-78.242582 118.209738A384.234516 384.234516 0 0 0 149.229327 662.735814a377.46759 377.46759 0 0 0 27.91357 137.876117 359.492943 359.492943 0 0 0 79.088447 117.575339 347.650823 347.650823 0 0 0 109.116682 74.436186 373.661194 373.661194 0 0 0 125.188131 30.662633 366.048403 366.048403 0 0 0 126.879862-14.379717 347.650823 347.650823 0 0 0 117.363873-60.056469 365.477443 365.477443 0 0 0 33.623163-29.605301 362.876406 362.876406 0 0 0 79.51138-118.209738 345.324692 345.324692 0 0 0 26.644771-138.510516 364.145205 364.145205 0 0 0-27.490636-139.144916 359.492943 359.492943 0 0 0-79.088448-117.575339l-2.537597-2.537597zM540.019303 204.276578a19.877845 19.877845 0 0 1-19.877845-19.877845V19.666379a19.877845 19.877845 0 0 1 39.544224 0v164.732354a19.877845 19.877845 0 0 1-19.666379 19.877845zM689.314608 216.118699a21.146644 21.146644 0 0 1-9.727457-2.537597 19.666379 19.666379 0 0 1-7.189858-27.067704l63.439931-128.783061A19.666379 19.666379 0 0 1 762.481995 50.540478a19.454912 19.454912 0 0 1 7.189859 26.856238l-63.439931 128.78306a21.146644 21.146644 0 0 1-16.917315 9.938923zM383.534139 216.118699a19.454912 19.454912 0 0 1-17.128781-9.938923l-63.439931-128.78306a19.666379 19.666379 0 0 1 34.257563-19.666379l63.439931 128.783061a21.146644 21.146644 0 0 1-7.401325 27.067704 19.666379 19.666379 0 0 1-9.727457 2.537597z" fill="#fff" p-id="36829"></path></svg>
